<svg width="947" height="954" viewBox="0 0 947 954" fill="none" xmlns="http://www.w3.org/2000/svg">
<g opacity="0.5">
<g filter="url(#filter0_f_0_1)">
<ellipse cx="485.217" cy="479.69" rx="285.217" ry="279.31" fill="url(#paint0_linear_0_1)"/>
</g>
<g filter="url(#filter1_f_0_1)">
<ellipse cx="583.304" cy="371.373" rx="208.696" ry="204.373" fill="url(#paint1_linear_0_1)"/>
</g>
</g>
<path fill-rule="evenodd" clip-rule="evenodd" d="M431.609 388.373C437.192 402.641 442.775 416.909 448.358 431.177C450.423 436.453 449.236 442.845 449.42 448.441C449.793 459.834 450.325 471.162 455.934 481.316C461.169 490.796 467.613 499.705 474.201 508.288C483.143 495.59 497.004 485.662 510.335 478.167C519.519 473.004 529.555 468.415 540.083 466.927C543.356 466.465 546.967 466.151 550.213 467.006C549.774 461.985 549.693 456.887 550.072 451.861C550.665 443.986 552.722 438.639 558.701 433.381C561.742 430.706 565.018 428.296 568.355 426.006C569.546 425.189 573.053 423.74 573.77 422.467C574.401 421.348 573.831 418.126 573.914 416.803C574.21 412.168 574.927 407.521 576.286 403.073C578.855 394.664 583.408 386.897 586.253 378.544C582.016 377.939 577.779 377.334 573.542 376.728C570.673 376.318 568.774 375.11 566.935 377.209C560.565 384.474 555.13 392.843 549.307 400.553C545.468 405.638 541.731 410.747 537.384 415.421C530.437 422.89 517.934 434.983 507.684 425.571C502.42 420.739 501.621 412.44 501.516 405.741C501.374 396.621 502.764 387.5 504.344 378.544C488.838 377.067 472.861 379.604 457.656 382.476C448.914 384.127 440.195 386.039 431.609 388.373Z" fill="#E4BC84"/>
<path fill-rule="evenodd" clip-rule="evenodd" d="M517.834 334.325C506.419 334.325 501.466 349.429 515.225 349.287C525.958 349.175 531.619 334.325 517.834 334.325ZM513.465 352.174C496.331 352.174 502.615 331.543 517.899 331.489C536.756 331.423 528.424 352.172 513.465 352.174ZM699.904 617.665C692.954 619.103 685.973 620.597 679.21 622.774C675.061 624.109 670.356 627.933 668.112 622.339C667.182 620.023 666.806 617.568 665.682 615.32C664.389 612.731 662.689 610.357 660.888 608.101C656.787 602.965 652.499 597.564 647.835 592.953C638.781 584 630.291 574.127 619.299 567.645C616.475 565.98 614.129 563.311 611.407 561.391C608.481 559.329 605.545 557.285 602.545 555.333C596.4 551.334 590.138 547.511 583.787 543.848C586.984 539.973 591.395 537.363 595.488 534.558C599.866 531.556 604.173 528.418 608.494 525.338C610.388 523.989 611.308 523.642 613.419 524.801C615.363 525.868 617.266 527.207 619.122 528.422C623.676 531.402 627.724 534.911 631.35 538.968C639.159 547.706 648.297 554.76 656.992 562.557C665.814 570.468 674.605 578.782 682.101 587.984C686.117 592.915 690.072 598.058 693.554 603.382C695.394 606.195 696.955 609.163 698.56 612.112C699.184 613.259 702.497 617.128 699.904 617.665ZM579.644 536.254C579.432 536.763 578.955 537.211 578.406 536.836C578.258 536.735 578.679 534.334 578.702 534.046C578.868 531.976 578.9 529.898 578.869 527.823C578.809 523.91 578.475 520.008 578.223 516.104C577.712 508.194 577.628 500.254 576.708 492.375C578.671 493.346 581.348 494.756 582.718 496.54C583.842 498.005 583.673 499.285 583.692 501.083C583.752 506.512 584.601 511.913 584.992 517.323C585.15 519.508 585.245 521.688 585.817 523.811C586.299 525.605 587.391 527.598 586.913 529.499C586.095 532.744 581.946 534.266 579.644 536.254ZM590.424 502.316C592.803 503.942 595.525 504.885 596.014 508.042C596.487 511.099 595.837 513.902 596.892 516.906C597.518 518.687 598.857 520.866 597.764 522.606C596.622 524.422 593.756 525.348 592.091 526.613C591.761 522.652 592.04 518.67 591.751 514.707C591.449 510.563 590.424 506.483 590.424 502.316ZM602.25 511.428C604.322 513.091 606.394 514.754 608.466 516.417C606.393 517.545 604.322 518.674 602.25 519.803V511.428ZM571.528 543.238C570 544.476 567.379 543.02 566.069 542.119C564.028 540.716 563.669 539.459 563.864 537.03C564.345 531.015 563.243 525.211 562.252 519.274C560.028 505.953 558.221 492.533 557.144 479.067C561.013 480.926 566.121 483.01 568.54 486.768C570.103 489.195 569.645 492.299 569.571 495.059C569.469 498.823 569.154 502.582 569.162 506.349C569.177 513.759 570.008 521.165 570.216 528.573C570.304 531.68 570.293 534.869 571.779 537.688C572.114 538.323 573.844 540.204 573.891 540.724C573.979 541.693 572.245 542.647 571.528 543.238ZM552.709 534.133C547.788 531.573 547.171 524.994 546.009 520.182C544.39 513.475 542.834 506.627 541.896 499.787C540.974 493.062 541.143 486.246 540.094 479.531C539.863 478.058 538.396 474.783 539.013 473.319C539.794 471.469 542.712 471.517 544.356 471.236C545.86 470.977 548.683 469.371 549.654 470.726C550.461 471.854 549.683 474.427 549.492 475.636C548.609 481.268 549.492 486.948 550.134 492.582C551.777 506.982 553.117 521.384 555.563 535.682C554.613 535.165 553.67 534.633 552.709 534.133ZM544.314 548.784C544.171 546.224 544.029 543.664 543.885 541.104C545.38 541.667 546.875 542.23 548.371 542.793C547.194 544.896 546.143 547.148 544.314 548.784ZM539.09 555.159C537.695 556.61 536.459 558.513 534.532 559.313V538.672C536.167 538.914 538.003 538.482 538.672 540.274C539.184 541.644 538.497 543.77 538.695 545.272C539.019 547.747 541.143 553.025 539.09 555.159ZM529.499 524.798C528.066 513.262 527.647 501.627 525.778 490.141C525.355 487.541 524.872 485.019 524.237 482.463C523.834 480.848 522.999 478.881 524.04 477.364C525.642 475.027 530.139 475.095 532.593 474.515C532.298 492.603 533.147 511.049 539.473 528.189C537.387 527.948 529.852 527.64 529.499 524.798ZM528.693 564.364C526.015 566.303 523.59 569.114 520.301 570.018C520.095 561.813 519.974 553.602 519.656 545.401C519.582 543.493 519.532 541.567 519.337 539.666C519.255 538.857 518.711 537.191 519.102 536.378C520.102 534.297 523.77 535.717 525.285 536.659C527.374 537.957 527.141 540.096 527.108 542.389C527.068 545.312 527.113 548.123 527.329 551.049C527.52 553.642 527.761 556.154 528.218 558.709C528.371 559.566 529.592 563.712 528.693 564.364ZM515.837 573.258C512.589 575.039 511.389 571.641 509.9 569.403C508.878 567.868 507.247 566.41 506.835 564.547C506.42 562.672 507.348 560.777 507.505 558.927C507.884 554.482 506.443 549.897 505.883 545.517C505.248 540.541 505.015 535.493 505.015 530.479C507.47 531.594 511.863 531.639 512.746 534.662C513.138 536.004 512.614 537.735 512.533 539.105C512.397 541.411 512.473 543.74 512.445 546.051C512.332 555.21 512.706 564.153 517.797 572.112C517.149 572.503 516.496 572.886 515.837 573.258ZM505.417 578.83C499.92 581.157 494.633 584.124 488.83 585.656C483.025 587.188 477.107 588.573 471.223 589.765C458.908 592.262 446.257 593.723 433.68 593.322C427.524 593.124 421.466 592.314 415.384 591.383C409.225 590.44 403.893 588.223 398.065 586.183C386.734 582.218 375.121 579.647 364.379 574.111C361.787 572.775 359.264 571.313 356.69 569.945C355.322 569.219 353.642 568.907 353.568 567.177C353.491 565.385 355.426 562.095 356.193 560.489C357.382 558.002 359.217 556.026 361.078 554.02C364.234 550.62 367.197 545.563 371.026 542.942C373.137 541.497 374.005 542.38 375.858 543.668C378.298 545.365 381.21 546.572 383.941 547.73C395.176 552.494 407.947 555.38 420.033 556.79C431.933 558.178 443.698 559.528 455.546 556.697C462.252 555.095 468.545 552.4 474.883 549.744C476.978 548.866 479.334 546.935 481.249 548.444C483.3 550.059 484.521 553.393 486.196 555.437C490.206 560.329 495.184 564.136 499.194 569.016C500.167 570.201 508.237 577.636 505.417 578.83ZM347.872 555.419C346.093 558.042 344.492 560.878 343.984 564.049C340.568 561.31 338.237 560.382 340.984 556.052C343.552 552.005 345.834 547.881 348.173 543.691C349.127 541.98 350.545 539.973 350.235 537.897C349.882 535.533 347.775 534.471 345.726 535.538C344.27 536.296 343.175 538.298 342.215 539.581C340.484 541.894 338.978 544.352 337.507 546.835C336.416 548.68 335.382 551.668 333.857 553.083C332.83 554.035 331.533 554.086 331.26 552.223C331.018 550.568 333.476 547.648 334.208 546.331C335.403 544.183 336.717 542.087 337.655 539.809C338.628 537.448 339.264 529.628 334.575 533.515C332.957 534.857 331.594 537.448 330.375 539.146C328.5 541.759 326.739 544.454 325.117 547.231C322.255 545.318 319.53 542.295 316.075 541.472C312.792 540.69 309.843 543.67 307.04 545.043C302.677 547.181 298.557 549.775 294.402 552.282C290.694 554.52 286.75 556.272 283.113 558.64C276.785 562.759 269.079 568.186 261.132 565.739C257.983 564.769 254.507 562.774 252.796 559.855C250.484 555.912 251.074 550.657 249.587 546.387C253.8 548.718 258.24 546.027 261.955 544.019C266.119 541.769 270.438 539.846 274.807 538.031C283.839 534.279 293.204 531.004 302.092 526.957C319.462 519.05 334.105 506.299 351.534 498.568C355.633 510.455 362.406 521.405 371.38 530.23C362.811 537.898 354.359 545.852 347.872 555.419ZM485.08 508.065C482.755 506.967 479.925 506.737 481.538 503.703C482.684 501.549 485.175 500.05 486.749 498.218L488.689 509.926C487.488 509.303 486.304 508.644 485.08 508.065ZM498.245 514.516C497.949 508.68 497.219 502.663 495.067 497.197C494.436 495.594 493.355 493.706 494.257 492.039C495.179 490.335 497.892 489.403 499.566 488.691C500.842 498.635 501.457 508.753 504.415 518.39C502.233 517.792 498.397 517.499 498.245 514.516ZM500.055 554.531C500.067 554.707 500.077 554.883 500.089 555.059C497.85 553.953 495.346 552.244 494.181 549.948C492.959 547.54 493.612 544.771 493.628 542.197C493.645 539.224 493.138 536.349 492.588 533.441C491.967 530.162 492.354 527.087 492.564 523.789C494.362 525.005 497.064 525.862 498.249 527.798C499.488 529.824 498.775 532.465 498.53 534.665C497.802 541.208 498.343 548.173 500.055 554.531ZM521.008 524.273C516.685 523.667 514.385 522.792 513.625 518.301C512.691 512.786 511.708 507.303 510.953 501.759C510.251 496.61 507.838 491.273 507.597 486.138C507.428 482.523 513.499 481.236 516.248 479.891C517.717 494.695 518.448 509.597 521.008 524.273ZM476.862 500.293C476.381 501.395 475.982 502.531 475.545 503.651C472.494 499.121 469.486 494.689 465.932 490.531C462.641 486.68 459.897 482.747 458.211 477.938C456.382 472.727 454.706 467.195 454.154 461.682C453.598 456.124 454.109 450.423 454.237 444.85C454.311 441.613 456.124 433.438 453.585 430.8C452.653 429.831 451.179 430.159 450.124 429.262C448.678 428.033 448.211 425.515 447.614 423.827C443.85 413.187 440.533 402.225 434.99 392.334C442.383 389.17 450.748 387.58 458.536 385.645C466.714 383.613 475.208 382.358 483.602 381.66C487.655 381.323 491.714 381.18 495.781 381.21C499.081 381.235 502.382 380.683 501.264 384.887C499.574 391.239 498.35 397.745 498.43 404.349C498.546 413.99 501.015 426.787 510.839 431.181C526.142 438.025 538.212 421.58 546.048 411.155C551.525 403.868 556.806 396.662 561.534 388.84C563.08 386.283 564.401 382.341 567.347 381.065C571.001 379.482 576.273 380.579 580.134 380.579C579.841 385.236 579.544 389.136 577.526 393.42C575.569 397.571 573.967 401.75 572.651 406.147C571.392 410.353 570.82 414.28 570.298 418.575C569.833 422.392 565.925 421.044 563.131 422.138C556.576 424.705 553.045 432.48 550.452 438.477C548.795 442.308 547.084 446.23 546.378 450.372C545.532 455.326 546.141 460.368 546.332 465.349C545.201 465.59 543.961 464.676 542.895 464.423C541.269 464.039 539.495 464.028 537.838 464.136C534.188 464.375 530.487 465.027 526.926 465.839C519.225 467.597 511.944 470.767 504.97 474.424C493.666 480.35 482.135 488.186 476.862 500.293ZM438.958 424.07C427.398 428.048 415.665 431.757 403.609 433.911C397.679 434.97 391.746 434.743 385.756 434.566C383.003 434.484 380.612 434.03 377.944 433.464C375.913 433.033 372.526 431.981 370.641 433.193C369.542 429.576 363.74 429.509 360.765 428.927C358.344 428.453 356.213 427.232 353.836 426.659C352.943 426.444 352.073 426.48 351.284 426.03C350.526 425.597 350.098 424.615 349.309 424.232C348.175 423.681 346.799 423.644 345.963 422.861C344.026 421.045 341.859 419.428 339.941 417.583C338.004 415.722 337.085 413.315 335.764 411.006C334.221 408.305 331.823 405.647 330.685 402.773C331.185 403.116 331.681 403.463 332.175 403.816C331.905 400.435 330.978 397.462 331.213 393.957C331.329 392.228 331.154 391.119 330.935 389.484C330.768 388.235 330.93 387.207 330.949 385.808C330.999 382.074 332.232 378.655 332.818 375.009C333.014 373.798 333.116 372.499 333.169 371.301C333.217 370.206 332.536 368.748 332.665 367.568C333.177 367.828 333.638 368.159 334.048 368.561C332.899 365.751 336.589 362.409 336.998 359.726C337.613 355.69 333.77 354.666 330.522 355.149C326.149 355.799 322.11 358.383 318.196 360.274C312.837 362.863 307.507 365.465 302.256 368.269C296.095 371.557 290.717 375.92 284.653 379.277C283.885 379.702 281.058 381.538 280.545 380.007C280.09 378.649 283.249 376.191 284.017 375.484C287.958 371.856 292.377 368.64 296.799 365.623C299.853 363.538 303.054 361.673 306.181 359.701C309.54 357.582 314.249 355.191 315.568 351.142C316.653 347.811 315.393 344.784 311.637 345.74C306.776 346.979 301.908 350.385 297.445 352.648C292.987 354.909 288.462 357.046 284.031 359.359C283.043 359.875 279.25 362.543 279.889 360.412C280.405 358.688 283.387 356.608 284.673 355.43C286.578 353.684 288.585 352.051 290.652 350.5C295.02 347.222 299.661 344.319 304.375 341.569C307.266 339.882 310.378 338.102 310.532 334.351C310.793 327.916 304.95 331.331 301.579 332.607C297.069 334.314 292.395 335.542 287.874 337.22C283.751 338.75 279.588 340.411 275.193 340.97C272.944 341.256 269.598 341.342 270.139 338.201C270.721 334.836 275.527 332.525 278.153 331.024C282.646 328.454 287.251 327.476 292.24 326.356C297.673 325.137 303.032 323.824 308.526 322.879C319.659 320.964 330.375 320.287 341.622 321.31C346.777 321.778 352.016 321.276 357.114 321.748C360.504 322.061 363.047 324.171 364.89 326.901C369.379 333.555 371.264 342.627 370.543 350.489C369.497 361.879 364.527 371.479 360.279 381.85C357.048 389.739 354.638 400.7 363.302 406.073C367.394 408.61 372.013 408.433 376.596 407.766C382.778 406.866 388.868 405.434 394.909 403.862C406.847 400.757 418.668 397.268 430.453 393.634C430.972 395.688 442.228 422.945 438.958 424.07ZM503.064 406.112C503.5 400.007 503.718 393.987 504.792 387.948C505.141 385.983 505.298 383.799 507.012 382.499C508.705 381.214 511.219 381.173 513.146 380.38C518.263 378.274 522.445 373.435 526.312 369.622C530.305 365.685 532.9 361.2 534.783 355.94C536.289 351.733 538.678 345.09 535.889 340.952C533.718 337.732 530.179 336.601 531.293 331.961C532.245 327.995 536.19 325.763 539.615 328.431C541.755 330.098 544.161 334.147 544.161 328.643C553.289 330.664 562.722 327.471 570.697 323.139C572.256 322.291 574.167 320.947 575.752 322.281C576.799 323.163 577.14 324.901 578.288 325.88C579.486 326.902 581.367 327.471 581.738 329.182C582.023 330.501 581.191 332.556 580.835 333.776C579.927 336.883 578.704 340.06 576.218 342.233C575.142 343.174 571.449 346.357 570.065 345.01C568.466 343.455 571.935 338.413 567.527 341.3C565.95 342.334 565.461 342.383 564.789 344.271C563.999 346.487 563.64 348.84 563.326 351.161C561.613 350.601 558.892 348.777 557.14 350.103C555.481 351.359 556.357 353.988 557.722 355.08C559.123 356.201 561.978 356.411 563.616 355.69C566.235 354.537 566.248 351.591 566.807 349.171C568.287 350.244 569.277 352.147 571.403 351.782C564.941 359.444 556.432 364.75 546.325 364.767C541.755 364.775 540.029 366.532 539.117 370.987C538.187 375.538 538.212 380.5 538.207 385.116C538.201 388.883 538.338 392.738 539.489 396.358C540.251 398.757 541.738 401.095 542.678 397.171C543.184 395.065 542.825 392.647 542.804 390.492C542.792 389.136 542.336 386.662 543.223 385.547C544.208 384.307 546.493 384.991 547.864 384.977C550.742 384.95 553.496 383.875 556.376 383.875C552.121 390.144 547.3 396.004 543.227 402.399C539.062 408.938 533.999 415.08 527.864 419.881C522.738 423.891 515.602 425.961 509.783 422.055C504.792 418.704 502.651 411.884 503.064 406.112ZM582.362 348.654C584.22 351.305 578.224 356.524 575.924 356.484C576.511 355.54 581.2 346.995 582.362 348.654ZM586.446 384.948C587.129 382.988 590.984 383.15 592.584 383.097C596.074 382.983 599.57 382.974 603.062 382.867C612.61 382.575 622.152 381.885 631.709 382.038C641.603 382.196 651.505 381.255 661.381 381.599C670.764 381.925 680.112 382.798 689.336 384.565C706.234 387.804 723.802 392.421 737.309 403.767C749.441 413.959 758.481 428.708 756.569 445.009C755.388 455.061 754.96 465.619 751.152 475.121C747.916 483.198 741.122 488.202 734.106 492.854C734.014 490.918 739.17 478.389 733.667 480.305C731.892 480.923 730.863 483.366 729.895 484.831C728.198 487.401 726.379 489.917 724.539 492.388C721.199 496.873 717.364 501.113 712.437 503.885C710.529 504.959 704.458 508.119 703.379 504.653C702.485 501.783 708.281 495.969 709.646 493.772C710.856 491.824 711.824 489.942 711.37 487.623C711.194 486.73 710.655 485.909 710.454 485.015C710.292 484.292 710.481 483.185 710.154 482.524C707.965 478.105 705.632 485.759 704.94 487.14C702.546 491.922 696.97 495.035 692.632 497.776C687.237 501.186 681.898 504.881 675.634 506.493C679.554 499.78 683.561 493.111 687.121 486.196C690.436 479.757 692.531 472.307 696.404 466.333C697.058 465.324 697.502 464.231 698.021 463.022C698.344 462.269 698.829 459.703 699.256 459.254C699.499 458.998 700.854 458.901 701.385 458.384C702.041 457.749 702.408 456.742 702.741 455.915C703.136 454.932 704.651 451.51 704.253 450.397C704.17 450.165 703.087 450.266 702.9 449.836C702.68 449.333 702.839 448.966 702.816 448.453C702.765 447.27 703.514 446.376 702.629 445.244C707.102 445.244 702.934 433.216 702.169 431.029C701.319 428.599 699.895 426.853 699.239 424.483C698.439 421.59 696.215 419.055 694.229 416.871C692.243 414.686 690.17 412.08 687.935 410.178C685.62 408.208 682.494 407.094 679.864 405.602C678.691 404.937 677.436 404.054 676.09 403.784C675.653 403.913 675.218 404.049 674.784 404.189C674.279 403.925 673.83 403.585 673.438 403.169C670.923 401.862 668.459 401.391 665.628 401.049C651.639 399.358 636.644 399.053 622.6 400.24C615.303 400.856 607.884 401.558 600.697 402.99C593.255 404.472 585.932 406.364 578.408 407.455C580.107 399.631 583.827 392.468 586.446 384.948ZM626.935 288.969C628.226 288.798 627.684 290.557 627.267 291.087C626.725 290.463 626.614 289.758 626.935 288.969ZM808.186 661.048C807.129 655.957 803.503 650.707 799.324 647.663C794.167 643.906 788.343 643.863 782.284 644.17C775.339 644.521 768.595 645.733 761.756 646.896C754.805 648.078 747.965 649.095 741.22 651.21C738.518 652.058 735.771 652.771 733.106 653.727C731.119 654.44 728.822 655.806 727.827 653.211C726.018 648.495 732.975 646.445 735.745 644.456C737.254 643.372 739.258 641.806 737.366 640.128C735.129 638.145 731.337 640.052 729.056 640.873C726.95 641.632 724.814 641.894 725.349 638.531C725.705 636.297 728.605 634.849 730.227 633.544C732.223 631.939 739.23 627.212 734.735 624.816C729.949 622.266 727.263 628.629 723.174 628.957C719.576 629.245 719.599 620.394 718.592 617.97C716.051 611.848 709.688 618.547 706.83 614.855C705.651 613.333 706.058 610.593 705.618 608.809C704.893 605.871 703.212 602.988 701.855 600.295C698.85 594.338 695.379 588.615 691.495 583.19C687.616 577.771 683.318 573.111 678.427 568.605C673.522 564.085 669.246 558.95 664.422 554.349C654.819 545.19 643.751 537.653 633.911 528.718C631.64 526.655 629.475 524.505 626.822 522.922C624.387 521.47 620.361 520.687 618.421 518.621C617.16 517.278 617.367 515.39 616.755 513.737C615.718 510.937 613.227 509.042 611.094 507.084C601.177 497.986 590.801 488.946 579.157 482.105C573.509 478.786 567.787 474.655 561.728 472.156C559.77 471.348 557.122 471.014 555.511 469.535C553.822 467.985 553.504 465.275 552.865 463.18C548.903 450.182 557.065 436.721 566.974 428.645C568.736 427.208 571.277 426.023 572.41 424.012C573.651 421.809 573.71 418.983 575.034 416.743C577.487 412.595 584.16 413.167 588.374 412.224C613.815 406.533 644.009 404.328 668.947 413.408C679.426 417.223 688.427 423.645 692.435 434.34C694.244 439.167 695.196 444.402 695.046 449.56C694.878 455.309 692.774 460.641 690.85 465.995C688.536 472.432 685.947 478.775 682.949 484.926C680.244 490.478 676.815 495.476 673.828 500.848C671.973 504.185 669.031 510.339 673.276 513.101C676.661 515.303 682.035 514.016 685.374 512.405C690.369 509.996 694.062 505.671 698.433 502.377C698.452 505.641 695.55 508.563 696.872 511.865C698.186 515.144 701.75 514.719 704.565 513.919C707.781 513.005 711.114 511.585 714.056 510.008C717.774 508.015 720.449 504.96 723.607 502.25C729.156 497.489 736.529 495.894 742.472 491.767C748.614 487.5 752.858 481.042 755.447 474.113C758.446 466.088 759.672 457.483 760.705 449.021C761.727 440.649 762.227 432.397 759.455 424.289C754.183 408.869 743.484 396.71 729.105 389.083C698.762 372.989 664.488 373.648 631.163 374.531C622.03 374.773 612.888 374.896 603.768 375.494C599.575 375.77 595.374 376.112 591.21 376.676C589.94 376.849 587.097 377.82 585.965 376.779C585.093 375.977 585.604 374.289 584.813 373.321C582.93 371.02 578.728 371.612 576.22 371.918C573.051 372.304 569.32 372.373 566.471 373.916C563.733 375.401 562.78 378.51 559.386 378.556C555.613 378.607 551.669 377.71 547.867 377.566C544.877 377.453 542.222 376.423 545.087 373.147C547.271 370.649 550.929 370.664 553.899 370.099C559.39 369.054 571.871 359.873 575.984 366.239C577.113 367.986 577.032 368.619 579.202 369.383C581.208 370.09 583.485 370.434 585.586 370.778C589.496 371.419 594.043 371.935 597.869 370.571C603.814 368.449 605.044 361.77 606.432 356.364C612.782 359.738 622.371 361.304 628.641 356.894C633.91 353.188 635.806 345.419 635.578 339.32C635.511 337.506 635.27 335.646 634.625 333.939C634.027 332.356 632.413 330.711 632.473 328.951C632.525 327.418 633.971 326.087 634.635 324.802C635.62 322.895 636.093 320.63 636.289 318.505C637.002 310.701 631.171 306.347 625.11 302.756C628.67 298.518 632.651 294.288 632.34 288.351C632.052 282.81 627.673 278.955 623.157 276.356C619.119 274.032 615.045 273.132 610.514 272.569C608.54 272.323 607.785 272.525 608.1 270.489C608.35 268.871 609.512 267.434 609.87 265.834C611.959 256.506 602.74 252.956 595.281 252.143C582.997 250.805 571.608 253.306 561.63 260.555C554.339 245.202 530.025 252.777 523.25 264.675C522.361 266.235 521.705 267.93 521.398 269.704C521.194 270.89 521.836 273.688 521.243 274.59C520.089 276.348 515.488 274.684 513.866 274.768C510.895 274.92 507.713 276.46 505.313 278.14C495.174 285.241 495.687 299.831 498.121 310.548C491.604 311.431 485.017 316.822 484.886 323.753C484.819 327.231 486.08 331.155 488.114 333.967C490.197 336.846 493.996 338.77 494.386 342.598C494.795 346.626 493.945 348.988 497.312 352.024C499.78 354.251 503.045 356.05 506.162 357.177C513.46 359.817 521.764 358.881 528.854 356.034C525.25 361.722 519.485 366.793 513.868 370.444C511.349 372.082 508.388 374.187 505.55 375.206C502.469 376.312 498.656 374.382 495.471 374.116C481.163 372.918 466.429 375.522 452.66 379.077C437.758 382.925 423.026 387.152 408.235 391.427C400.912 393.544 393.601 395.78 386.203 397.62C380.649 399.002 374.461 400.218 368.721 399.239C363.827 398.403 361.427 395.103 363.003 390.152C365.081 383.63 369.134 377.548 371.645 371.142C376.291 359.293 378.593 345.679 374.53 333.343C372.885 328.347 370.544 322.547 366.064 319.436C363.696 317.791 360.732 316.821 358.163 315.522C354.898 313.87 351.39 312.675 347.859 311.735C333.671 307.957 318.704 309.723 304.535 312.633C291.737 315.262 271.854 318.99 266.138 332.704C264.184 337.393 263.473 345.32 268.333 348.591C272.515 351.405 278.83 349.584 282.898 347.459C278.933 352.019 274.01 356.366 272.097 362.285C271.424 364.369 270.906 367.245 272.266 369.177C274.242 371.984 277.602 370.333 280.257 369.675C277.143 373.691 272.659 380.094 275.838 385.227C279.355 390.906 286.444 387.099 290.82 384.728C297.314 381.21 304.086 378.243 310.592 374.746C314.077 372.873 317.495 370.886 320.535 368.337C323.052 366.226 325.187 363.986 328.661 363.731C324.127 372.288 319.659 381.188 319.742 391.111C319.819 400.351 323.447 411.335 328.348 419.16C333.477 427.348 341.757 432.388 350.495 436.009C360.01 439.953 369.716 442.615 380.052 443.043C400.199 443.877 421.918 439.185 439.304 428.884C440.605 428.113 440.651 427.844 441.869 428.737C443.429 429.879 444.681 433.996 445.657 435.724C448.517 440.792 447.672 445.053 447.131 450.608C446.172 460.475 448.329 470.445 451.364 479.786C454.396 489.12 459.435 496.508 465.746 503.932C468.577 507.263 471.521 509.893 475.346 512.03C479.505 514.354 483.051 516.379 484.665 521.109C486.009 525.053 485.791 528.423 483.922 532.135C483.438 533.095 482.51 536.031 481.624 536.7C480.78 537.338 480.557 536.768 479.774 536.975C478.347 537.354 477.939 537.566 476.785 538.661C473.699 541.59 469.131 542.365 465.133 543.56C459.633 545.206 453.972 546.802 448.213 547.093C438.292 547.595 426.956 547.538 417.404 544.679C407.785 541.8 397.816 540.144 388.56 536.121C384.352 534.293 382.413 533.357 381.52 528.777C381.045 526.347 380.366 526.157 378.33 525.459C375.992 524.656 375.055 523.551 373.677 521.425C371.211 517.623 368.864 513.763 366.572 509.855C363.701 504.961 360.109 500.467 357.408 495.489C355.793 492.514 354.567 487.283 350.363 487.167C347.867 487.098 345.148 488.913 342.906 489.836C340.172 490.962 337.416 492.033 334.688 493.173C324.187 497.563 314.81 504.158 305.214 510.205C294.741 516.804 282.763 521.47 271.675 527.028C266.501 529.622 261.56 532.6 256.831 535.938C253.773 538.095 247.802 540.45 248.249 544.735C246.736 543.909 244.843 542.466 243.396 544.184C242.201 545.601 243.02 548.208 243.321 549.821C244.31 555.126 245.486 560.531 248.719 564.978C253.84 572.023 263.6 577.8 272.494 576.532C283.367 574.981 292.086 567.248 301.429 562.167C304.842 560.312 308.268 558.584 311.5 556.429C313.405 555.16 316.76 552.422 319.263 552.752C323.08 553.254 319.888 557.771 318.843 559.532C317.736 561.397 316.811 563.362 315.823 565.293C314.715 567.456 312.873 569.871 312.238 572.215C311.836 573.699 312.032 575.949 313.879 576.32C315.757 576.698 317.364 574.266 318.317 573.061C319.887 571.074 321.194 568.9 322.542 566.761C323.437 565.341 324.541 562.634 326.051 561.747C329.964 559.447 325.685 566.82 324.983 567.827C324.101 569.091 322.823 570.616 322.61 572.177C322.297 574.473 324.167 576.689 326.57 576.139C328.422 575.716 329.671 573.787 330.713 572.365C331.383 571.452 333.384 567.89 334.681 567.856C335.483 567.836 337.508 570.623 338.133 571.227C339.951 572.984 342.105 574.182 344.365 575.277C354.83 580.347 364.344 586.841 375.26 591.054C385.688 595.08 396.563 598.253 407.416 600.868C413.14 602.248 418.491 603.752 424.394 604.238C430.367 604.729 436.254 604.483 442.234 604.36C454.436 604.107 465.934 601.575 477.658 598.344C498.477 592.607 518.037 583.192 534.151 568.612C538.316 564.844 542.086 560.707 545.65 556.373C547.199 554.491 548.821 552.627 550.131 550.57C551.007 549.194 551.803 546.838 553.346 546.052C555.723 544.841 561.201 548.674 563.345 549.736C565.692 550.9 568.094 552.42 570.652 553.028C571.613 553.256 572.549 553.275 573.49 553.602C574.43 553.929 575.539 554.961 576.611 554.731C580.602 553.87 574.059 546.183 579.914 550.077C589.266 556.296 598.009 563.732 606.825 570.683C609.031 572.422 611.293 573.952 613.652 575.477C615.86 576.904 617.553 578.849 619.666 580.394C624.293 583.776 628.657 587.387 632.865 591.281C637.036 595.139 641.034 599.221 645.44 602.813C649.759 606.335 653.124 610.401 656.76 614.597C660.307 618.691 662.954 623.399 665.472 628.168C663.366 627.434 661.6 626.182 660.443 628.926C659.696 630.692 660.334 633.114 660.815 634.872C662.359 640.507 665.599 645.564 667.546 651.062C669.764 657.325 673.04 663.337 674.886 669.709C676.519 675.347 676.134 681.589 678.47 687.053C680.387 691.539 687.371 690.5 691.404 690.901C697.852 691.542 704.224 692.267 710.707 692.468C724.195 692.886 737.858 693.907 751.345 693.387C763.613 692.913 775.853 692.16 788.08 691.105C791.426 690.816 798.873 690.146 799.643 685.752C800.141 682.915 797.617 683.341 795.705 683.518C792.982 683.77 790.229 683.73 787.495 683.776C774.402 684 761.547 684.18 748.479 683.183C735.114 682.164 721.759 681.911 708.386 681.415C702.359 681.19 696.504 681.084 690.494 681.357C688.7 681.438 686.496 681.654 685.492 679.916C684.484 678.17 684.624 674.019 684.169 672.054C682.582 665.218 679.098 659.163 676.754 652.595C674.391 645.969 672.038 639.367 669.02 633.002C678.691 631.303 688.349 629.389 697.884 627.04C701.765 626.083 705.862 625.444 709.629 624.144C713.794 622.707 713.887 623.492 714.68 627.429C715.371 630.86 716.159 633.301 713.024 635.585C709.768 637.958 705.782 639.379 702.847 642.196C700.167 644.769 700.706 648.454 705.01 647.922C709.268 647.396 714.149 644.187 718.006 642.398C718.545 644.732 719.048 646.394 717.538 648.409C715.94 650.543 713.503 651.905 711.699 653.84C710.368 655.268 708.97 657.362 711.159 658.746C713.41 660.169 715.657 658.31 717.341 657.023C718.615 656.049 720.716 653.898 722.412 655.105C724.177 656.361 723.243 659.545 724.285 661.259C726.047 664.155 727.264 662.012 728.98 660.788C731.742 658.818 737.373 659.365 740.662 659.093C744.61 658.766 748.461 658.038 752.383 657.554C757.055 656.977 761.763 656.949 766.43 656.284C773.591 655.261 781.453 652.346 788.639 654.175C799.842 657.027 805.274 669.049 803.496 679.885C803.146 682.02 801.42 686.732 803.409 688.562C805.276 690.28 806.619 687.197 807.297 685.721C810.847 677.993 809.858 669.108 808.186 661.048Z" fill="#243F36"/>
<path fill-rule="evenodd" clip-rule="evenodd" d="M678.128 352.463C693.52 350.899 709.454 354.371 724.303 358.161C737.634 361.563 750.595 367.16 759.609 377.935C761.026 379.629 762.607 383.346 764.526 384.436C767.469 386.108 767.153 381.998 766.417 380.328C764.041 374.938 758.726 369.263 754.41 365.38C744.128 356.129 730.409 351.84 717.101 349.193C709.015 347.585 700.699 346.683 692.451 346.67C688.34 346.664 684.237 347.119 680.225 348.029C678.949 348.318 677.094 348.582 676.424 349.908C675.672 351.397 676.343 352.644 678.128 352.463Z" fill="#243F36"/>
<path fill-rule="evenodd" clip-rule="evenodd" d="M316.602 446.194C320.755 450.525 326.322 453.57 332.224 454.658C335.301 455.224 340.057 456.079 342.893 454.306C344.326 453.411 345.084 451.66 344.163 450.043C343.068 448.121 340.2 448.193 338.32 447.929C331.375 446.953 325.671 445.054 320.374 440.299C315.511 435.936 312.215 430.362 309.874 424.306C308.784 421.484 308.307 418.614 307.581 415.698C307.17 414.048 306.089 410.193 304.308 412.996C301.52 417.382 305.108 426.287 306.703 430.529C308.912 436.404 312.258 441.663 316.602 446.194Z" fill="#243F36"/>
<path fill-rule="evenodd" clip-rule="evenodd" d="M483.247 287.541C487.2 283.473 489.157 278.082 493.667 274.387C494.509 273.699 497.739 272.252 497.701 271.002C497.652 269.357 495.745 269.641 494.755 269.962C489.883 271.542 480.647 282.338 483.247 287.541Z" fill="#243F36"/>
<path fill-rule="evenodd" clip-rule="evenodd" d="M557.885 346.441C559.502 345.134 563.414 341.779 563.147 339.435C562.897 337.237 561.088 337.791 559.67 338.675C559.06 339.056 557.664 340.654 556.751 340.236C555.821 339.81 556.529 339.958 556.169 339.165C555.668 338.059 556.487 335.036 554.348 335.902C553.076 336.417 552.443 339.428 552.355 340.585C552.135 343.485 554.138 349.472 557.885 346.441Z" fill="#243F36"/>
<path fill-rule="evenodd" clip-rule="evenodd" d="M545.053 356.478C545.328 358.165 547.686 361.401 549.684 359.672C551.281 358.29 549.404 356.707 548.705 355.375C548.252 354.511 547.642 351.435 546.37 351.486C544.383 351.565 544.852 355.249 545.053 356.478Z" fill="#243F36"/>
<path fill-rule="evenodd" clip-rule="evenodd" d="M537.926 336.563C538.423 334.913 536.591 328.523 534.173 330.46C532.2 332.043 534.591 333.7 535.498 334.782C535.941 335.311 537.367 338.424 537.926 336.563Z" fill="#243F36"/>
<defs>
<filter id="filter0_f_0_1" x="0" y="0.38089" width="970.435" height="958.619" filterUnits="userSpaceOnUse" color-interpolation-filters="sRGB">
<feFlood flood-opacity="0" result="BackgroundImageFix"/>
<feBlend mode="normal" in="SourceGraphic" in2="BackgroundImageFix" result="shape"/>
<feGaussianBlur stdDeviation="100" result="effect1_foregroundBlur_0_1"/>
</filter>
<filter id="filter1_f_0_1" x="274.609" y="67" width="617.391" height="608.746" filterUnits="userSpaceOnUse" color-interpolation-filters="sRGB">
<feFlood flood-opacity="0" result="BackgroundImageFix"/>
<feBlend mode="normal" in="SourceGraphic" in2="BackgroundImageFix" result="shape"/>
<feGaussianBlur stdDeviation="50" result="effect1_foregroundBlur_0_1"/>
</filter>
<linearGradient id="paint0_linear_0_1" x1="348" y1="334.323" x2="529.857" y2="915.091" gradientUnits="userSpaceOnUse">
<stop stop-color="#243F36"/>
<stop offset="1" stop-color="#FFC56F" stop-opacity="0.31"/>
</linearGradient>
<linearGradient id="paint1_linear_0_1" x1="583.304" y1="167" x2="583.815" y2="862.803" gradientUnits="userSpaceOnUse">
<stop stop-color="#334082"/>
<stop offset="1" stop-color="#F58A25" stop-opacity="0"/>
<stop offset="1" stop-color="#FFC56F" stop-opacity="0.31"/>
</linearGradient>
</defs>
</svg>
